<svg xmlns="http://www.w3.org/2000/svg" viewBox="0 0 16 16" fill="none" shape-rendering="crispEdges"><metadata xmlns:rdf="http://www.w3.org/1999/02/22-rdf-syntax-ns#" xmlns:xsi="http://www.w3.org/2001/XMLSchema-instance" xmlns:dc="http://purl.org/dc/elements/1.1/" xmlns:dcterms="http://purl.org/dc/terms/"><rdf:RDF><rdf:Description><dc:title>Pixel Art</dc:title><dc:creator>DiceBear</dc:creator><dc:source xsi:type="dcterms:URI">https://www.figma.com/community/file/1198754108850888330</dc:source><dcterms:license xsi:type="dcterms:URI">https://creativecommons.org/publicdomain/zero/1.0/</dcterms:license><dc:rights>„Pixel Art” (https://www.figma.com/community/file/1198754108850888330) by „DiceBear”, licensed under „CC0 1.0” (https://creativecommons.org/publicdomain/zero/1.0/)</dc:rights></rdf:Description></rdf:RDF></metadata><mask id="viewboxMask"><rect width="16" height="16" rx="1.6" ry="1.6" x="0" y="0" fill="#fff" /></mask><g mask="url(#viewboxMask)"><path d="M4 2h8v1h1v3h1v2h-1v3h-1v1H9v1h4v1h1v2H2v-2h1v-1h4v-1H4v-1H3V8H2V6h1V3h1V2Z" fill="#f5cfa0"/><path d="M4 2h8v1h1v3h1v2h-1v3h-1v1H4v-1H3V8H2V6h1V3h1V2Z" fill="#fff" fill-opacity=".1"/><path d="M10 13h3v1h1v2H2v-2h1v-1h3v1h4v-1Z" fill="#ffc425"/><path fill="#fff" fill-opacity=".2" d="M4 13h1v3H4zM11 13h1v3h-1z"/><path d="M6 5H5v2h2V6H6V5ZM11 5h-1v2h2V6h-1V5Z" fill="#fff"/><path fill="#697b94" d="M5 6h1v1H5zM10 6h1v1h-1z"/><path fill-rule="evenodd" clip-rule="evenodd" d="M2 5v1h1v2h1v1h3V8h2v1h3V8h1V6h1V5H2Zm10 3H9V6h3v2ZM7 8H4V6h3v2Z" fill="#4b4b4b"/><path fill="#000" fill-opacity=".3" d="M9 6h3v2H9zM4 6h3v2H4z"/><path fill="#fff" fill-opacity=".2" d="M7 5h2v1H7zM2 5h2v1H2zM12 5h2v1h-2z"/><path d="M7 9h3v1H7V9Z" fill="#de0f0d"/><path d="M11 2H5v1h1v1h4V3h1V2ZM3 3h1v2H3V3ZM13 3h-1v2h1V3Z" fill="#a78961"/></g></svg>