<svg xmlns="http://www.w3.org/2000/svg" viewBox="0 0 16 16" fill="none" shape-rendering="crispEdges"><metadata xmlns:rdf="http://www.w3.org/1999/02/22-rdf-syntax-ns#" xmlns:xsi="http://www.w3.org/2001/XMLSchema-instance" xmlns:dc="http://purl.org/dc/elements/1.1/" xmlns:dcterms="http://purl.org/dc/terms/"><rdf:RDF><rdf:Description><dc:title>Pixel Art</dc:title><dc:creator>DiceBear</dc:creator><dc:source xsi:type="dcterms:URI">https://www.figma.com/community/file/1198754108850888330</dc:source><dcterms:license xsi:type="dcterms:URI">https://creativecommons.org/publicdomain/zero/1.0/</dcterms:license><dc:rights>„Pixel Art” (https://www.figma.com/community/file/1198754108850888330) by „DiceBear”, licensed under „CC0 1.0” (https://creativecommons.org/publicdomain/zero/1.0/)</dc:rights></rdf:Description></rdf:RDF></metadata><mask id="viewboxMask"><rect width="16" height="16" rx="1.6" ry="1.6" x="0" y="0" fill="#fff" /></mask><g mask="url(#viewboxMask)"><path d="M4 2h8v1h1v3h1v2h-1v3h-1v1H9v1h4v1h1v2H2v-2h1v-1h4v-1H4v-1H3V8H2V6h1V3h1V2Z" fill="#cb9e6e"/><path d="M4 2h8v1h1v3h1v2h-1v3h-1v1H4v-1H3V8H2V6h1V3h1V2Z" fill="#fff" fill-opacity=".1"/><path d="M5 13H4v3h3v-1H6v-1H5v-1ZM12 13h-1v1h-1v1H9v1h3v-3Z" fill="#03396c"/><path d="M10 5h1v2H9V6h1V5ZM5 5h1v2H4V6h1V5Z" fill="#fff"/><path fill="#647b90" d="M11 6h-1v1h1zM6 6H5v1h1z"/><path d="M7 11h2v-1H7v1ZM7 10V9H6v1h1ZM9 10V9h1v1H9Z" fill="#c98276"/><path d="M4 2h8v1h1v2h1v7h-1v-1h-1V5h-1V4H5v1H4v6H3v1H2V5h1V3h1V2ZM2 12v1H1v-1h1ZM14 12h1v1h-1v-1Z" fill="#009bbd"/></g></svg>