<svg xmlns="http://www.w3.org/2000/svg" viewBox="0 0 16 16" fill="none" shape-rendering="crispEdges"><metadata xmlns:rdf="http://www.w3.org/1999/02/22-rdf-syntax-ns#" xmlns:xsi="http://www.w3.org/2001/XMLSchema-instance" xmlns:dc="http://purl.org/dc/elements/1.1/" xmlns:dcterms="http://purl.org/dc/terms/"><rdf:RDF><rdf:Description><dc:title>Pixel Art</dc:title><dc:creator>DiceBear</dc:creator><dc:source xsi:type="dcterms:URI">https://www.figma.com/community/file/1198754108850888330</dc:source><dcterms:license xsi:type="dcterms:URI">https://creativecommons.org/publicdomain/zero/1.0/</dcterms:license><dc:rights>„Pixel Art” (https://www.figma.com/community/file/1198754108850888330) by „DiceBear”, licensed under „CC0 1.0” (https://creativecommons.org/publicdomain/zero/1.0/)</dc:rights></rdf:Description></rdf:RDF></metadata><mask id="viewboxMask"><rect width="16" height="16" rx="1.6" ry="1.6" x="0" y="0" fill="#fff" /></mask><g mask="url(#viewboxMask)"><path d="M4 2h8v1h1v3h1v2h-1v3h-1v1H9v1h4v1h1v2H2v-2h1v-1h4v-1H4v-1H3V8H2V6h1V3h1V2Z" fill="#f5cfa0"/><path d="M4 2h8v1h1v3h1v2h-1v3h-1v1H4v-1H3V8H2V6h1V3h1V2Z" fill="#fff" fill-opacity=".1"/><path d="M13 7h1v2h-1zM2 7h1v2H2z" fill="#fafad2"/><path d="M4 13h2v1h1v1h2v-1h1v-1h2v1h1v2H3v-2h1v-1Z" fill="#44c585"/><g fill-rule="evenodd" clip-rule="evenodd"><path d="M11 5h-1v2h2V6h-1V5ZM6 5H5v2h2V6H6V5Z" fill="#fff"/><path d="M10 5v1h1v1H9V5h1ZM5 5v1h1v1H4V5h1Z" fill="#5b7c8b"/><path d="M10 5v1H9V5h1Zm1 1v1h-1V6h1ZM5 5v1H4V5h1Zm1 1v1H5V6h1Z" fill="#fff" fill-opacity=".5"/></g><path fill="#191919" d="M2 5h12v1H2zM3 7h10v1H3zM3 6h1v1H3zM12 6h1v1h-1z"/><path fill="#fff" fill-opacity=".3" d="M4 6h8v1H4z"/><path fill="#fff" fill-opacity=".2" d="M2 5h1v1H2zM13 5h1v1h-1z"/><path fill="#000" fill-opacity=".3" d="M7 6h2v1H7z"/><mask id="beardVariant06-a" style="mask-type:luminance" maskUnits="userSpaceOnUse" x="3" y="9" width="10" height="3"><path opacity=".9" d="M3 9h3v1h4V9h3v2h-1v1H4v-1H3V9Z" fill="#83623b"/></mask><g mask="url(#beardVariant06-a)"><path fill="#83623b" d="M0 0h16v16H0z"/><path fill="#fff" fill-opacity=".3" d="M0 0h16v16H0z"/></g><path d="M6 9h3v1H6V9Z" fill="#d29985"/><g fill="#83623b"><path d="M5 0h1v1H5V0Z"/><path d="M2 3h1V1h2v1h1V1h1v1h1V1H7V0h2v2h1V1h1v1h1V1h1v1h1v1h-1v1H4v1H3v1H2V5H1V4h1V3Z"/><path d="M2 3H1V2h1v1ZM1 6H0V5h1v1ZM2 8H1V6h1v2ZM2 8h1v2H2V8Z"/><path fill-rule="evenodd" clip-rule="evenodd" d="M14 4h-1v2h2V5h1V4h-1V3h-1v1Zm0 0h1v1h-1V4Z"/><path d="M12 1h-1V0h1v1ZM13 8h1v2h-1V8Z"/></g></g></svg>