<svg xmlns="http://www.w3.org/2000/svg" viewBox="0 0 16 16" fill="none" shape-rendering="crispEdges"><metadata xmlns:rdf="http://www.w3.org/1999/02/22-rdf-syntax-ns#" xmlns:xsi="http://www.w3.org/2001/XMLSchema-instance" xmlns:dc="http://purl.org/dc/elements/1.1/" xmlns:dcterms="http://purl.org/dc/terms/"><rdf:RDF><rdf:Description><dc:title>Pixel Art</dc:title><dc:creator>DiceBear</dc:creator><dc:source xsi:type="dcterms:URI">https://www.figma.com/community/file/1198754108850888330</dc:source><dcterms:license xsi:type="dcterms:URI">https://creativecommons.org/publicdomain/zero/1.0/</dcterms:license><dc:rights>„Pixel Art” (https://www.figma.com/community/file/1198754108850888330) by „DiceBear”, licensed under „CC0 1.0” (https://creativecommons.org/publicdomain/zero/1.0/)</dc:rights></rdf:Description></rdf:RDF></metadata><mask id="viewboxMask"><rect width="16" height="16" rx="1.6" ry="1.6" x="0" y="0" fill="#fff" /></mask><g mask="url(#viewboxMask)"><path d="M4 2h8v1h1v3h1v2h-1v3h-1v1H9v1h4v1h1v2H2v-2h1v-1h4v-1H4v-1H3V8H2V6h1V3h1V2Z" fill="#f5cfa0"/><path d="M4 2h8v1h1v3h1v2h-1v3h-1v1H4v-1H3V8H2V6h1V3h1V2Z" fill="#fff" fill-opacity=".1"/><path d="M5 13H3v1H2v2h12v-2h-1v-1h-2v1h-1v1H6v-1H5v-1Z" fill="#ff6f69"/><path d="M10 5h1v2H9V6h1V5ZM5 5h1v2H4V6h1V5Z" fill="#fff"/><path fill="#5b7c8b" d="M11 6h-1v1h1zM6 6H5v1h1z"/><mask id="beardVariant08-a" style="mask-type:luminance" maskUnits="userSpaceOnUse" x="3" y="6" width="10" height="6"><path opacity=".9" d="M3 6h1v3h8V6h1v5h-1v1H4v-1H3V6Z" fill="#611c17"/></mask><g mask="url(#beardVariant08-a)"><path fill="#611c17" d="M0 0h16v16H0z"/><path fill="#fff" fill-opacity=".3" d="M0 0h16v16H0z"/></g><path d="M6 10v1h1v-1h3V9H7v1H6Z" fill="#d29985"/><g fill="#611c17"><path d="M2 3h2v3H2zM12 3h2v3h-2z"/><path d="M12 3h2v3h-2z"/></g></g></svg>