<svg xmlns="http://www.w3.org/2000/svg" viewBox="0 0 16 16" fill="none" shape-rendering="crispEdges"><metadata xmlns:rdf="http://www.w3.org/1999/02/22-rdf-syntax-ns#" xmlns:xsi="http://www.w3.org/2001/XMLSchema-instance" xmlns:dc="http://purl.org/dc/elements/1.1/" xmlns:dcterms="http://purl.org/dc/terms/"><rdf:RDF><rdf:Description><dc:title>Pixel Art</dc:title><dc:creator>DiceBear</dc:creator><dc:source xsi:type="dcterms:URI">https://www.figma.com/community/file/1198754108850888330</dc:source><dcterms:license xsi:type="dcterms:URI">https://creativecommons.org/publicdomain/zero/1.0/</dcterms:license><dc:rights>„Pixel Art” (https://www.figma.com/community/file/1198754108850888330) by „DiceBear”, licensed under „CC0 1.0” (https://creativecommons.org/publicdomain/zero/1.0/)</dc:rights></rdf:Description></rdf:RDF></metadata><mask id="viewboxMask"><rect width="16" height="16" rx="1.6" ry="1.6" x="0" y="0" fill="#fff" /></mask><g mask="url(#viewboxMask)"><path d="M4 2h8v1h1v3h1v2h-1v3h-1v1H9v1h4v1h1v2H2v-2h1v-1h4v-1H4v-1H3V8H2V6h1V3h1V2Z" fill="#8d5524"/><path d="M4 2h8v1h1v3h1v2h-1v3h-1v1H4v-1H3V8H2V6h1V3h1V2Z" fill="#fff" fill-opacity=".1"/><path d="M4 13h2v1h1v1h2v-1h1v-1h2v1h1v2H3v-2h1v-1Z" fill="#ff6f69"/><path fill="#fff" d="M4 5h3v2H4zM9 5h3v2H9z"/><path fill="#647b90" d="M9 6h1v1H9zM4 6h1v1H4z"/><mask id="beardVariant05-a" style="mask-type:luminance" maskUnits="userSpaceOnUse" x="3" y="6" width="10" height="6"><path opacity=".9" d="M3 6h1v2h1v1h6V8h1V6h1v5h-1v1H4v-1H3V6Z" fill="#cab188"/></mask><g mask="url(#beardVariant05-a)"><path fill="#cab188" d="M0 0h16v16H0z"/><path fill="#fff" fill-opacity=".3" d="M0 0h16v16H0z"/></g><path d="M7 9h3v1H7V9Z" fill="#de0f0d"/><path d="M12 2H4v1h8zM13 3H7v1h6zM13 4h-2v1h2zM13 5h-1v1h1zM6 4H3v1h3zM7 3H3v1h4zM5 5H3v1h2zM4 6H3v1h1z" fill="#cab188"/></g></svg>