<svg xmlns="http://www.w3.org/2000/svg" viewBox="0 0 16 16" fill="none" shape-rendering="crispEdges"><metadata xmlns:rdf="http://www.w3.org/1999/02/22-rdf-syntax-ns#" xmlns:xsi="http://www.w3.org/2001/XMLSchema-instance" xmlns:dc="http://purl.org/dc/elements/1.1/" xmlns:dcterms="http://purl.org/dc/terms/"><rdf:RDF><rdf:Description><dc:title>Pixel Art</dc:title><dc:creator>DiceBear</dc:creator><dc:source xsi:type="dcterms:URI">https://www.figma.com/community/file/1198754108850888330</dc:source><dcterms:license xsi:type="dcterms:URI">https://creativecommons.org/publicdomain/zero/1.0/</dcterms:license><dc:rights>„Pixel Art” (https://www.figma.com/community/file/1198754108850888330) by „DiceBear”, licensed under „CC0 1.0” (https://creativecommons.org/publicdomain/zero/1.0/)</dc:rights></rdf:Description></rdf:RDF></metadata><mask id="viewboxMask"><rect width="16" height="16" rx="1.6" ry="1.6" x="0" y="0" fill="#fff" /></mask><g mask="url(#viewboxMask)"><path d="M4 2h8v1h1v3h1v2h-1v3h-1v1H9v1h4v1h1v2H2v-2h1v-1h4v-1H4v-1H3V8H2V6h1V3h1V2Z" fill="#ffdbac"/><path d="M4 2h8v1h1v3h1v2h-1v3h-1v1H4v-1H3V8H2V6h1V3h1V2Z" fill="#fff" fill-opacity=".1"/><path d="M5 13H3v1H2v2h5v-1H6v-1H5v-1ZM13 13h-2v1h-1v1H9v1h5v-2h-1v-1Z" fill="#ffc425"/><path fill="#fff" fill-opacity=".3" d="M11 13h1v1h-1zM10 14h1v1h-1zM9 15h1v1H9zM6 15h1v1H6zM5 14h1v1H5zM4 13h1v1H4z"/><path fill="#fff" d="M4 5h3v3H4zM9 5h3v3H9z"/><path fill="#647b90" d="M10 5h2v2h-2zM5 5h2v2H5z"/><path fill="#fff" fill-opacity=".4" d="M5 5h1v1H5zM6 6h1v1H6zM10 5h1v1h-1zM11 6h1v1h-1z"/><path fill="#fff" fill-opacity=".7" d="M11 5h1v1h-1zM6 5h1v1H6z"/><path fill="#43677d" d="M2 5h12v1H2zM3 7h10v1H3zM3 6h1v1H3zM12 6h1v1h-1z"/><path fill="#fff" fill-opacity=".3" d="M4 6h8v1H4z"/><path fill="#fff" fill-opacity=".2" d="M2 5h1v1H2zM13 5h1v1h-1z"/><path fill="#000" fill-opacity=".3" d="M7 6h2v1H7z"/><path d="M6 11v-1h3V9h1v1H9v1H6Z" fill="#e35d6a"/><path d="M4 2h8v1h1v2h1v7h-1v-1h-1V5h-1V4H5v1H4v6H3v1H2V5h1V3h1V2ZM2 12v1H1v-1h1ZM14 12h1v1h-1v-1Z" fill="#a78961"/></g></svg>