<svg xmlns="http://www.w3.org/2000/svg" viewBox="0 0 16 16" fill="none" shape-rendering="crispEdges"><metadata xmlns:rdf="http://www.w3.org/1999/02/22-rdf-syntax-ns#" xmlns:xsi="http://www.w3.org/2001/XMLSchema-instance" xmlns:dc="http://purl.org/dc/elements/1.1/" xmlns:dcterms="http://purl.org/dc/terms/"><rdf:RDF><rdf:Description><dc:title>Pixel Art</dc:title><dc:creator>DiceBear</dc:creator><dc:source xsi:type="dcterms:URI">https://www.figma.com/community/file/1198754108850888330</dc:source><dcterms:license xsi:type="dcterms:URI">https://creativecommons.org/publicdomain/zero/1.0/</dcterms:license><dc:rights>„Pixel Art” (https://www.figma.com/community/file/1198754108850888330) by „DiceBear”, licensed under „CC0 1.0” (https://creativecommons.org/publicdomain/zero/1.0/)</dc:rights></rdf:Description></rdf:RDF></metadata><mask id="viewboxMask"><rect width="16" height="16" rx="1.6" ry="1.6" x="0" y="0" fill="#fff" /></mask><g mask="url(#viewboxMask)"><path d="M4 2h8v1h1v3h1v2h-1v3h-1v1H9v1h4v1h1v2H2v-2h1v-1h4v-1H4v-1H3V8H2V6h1V3h1V2Z" fill="#a26d3d"/><path d="M4 2h8v1h1v3h1v2h-1v3h-1v1H4v-1H3V8H2V6h1V3h1V2Z" fill="#fff" fill-opacity=".1"/><path d="M10 13h3v1h1v2H2v-2h1v-1h3v2h4v-2Z" fill="#ae0001"/><path fill="#fff" fill-opacity=".2" d="M5 14h1v1H5zM4 15h1v1H4zM7 15h1v1H7zM3 13h1v1H3zM2 14h1v1H2zM12 13h1v1h-1zM11 14h1v1h-1zM10 15h1v1h-1zM13 15h1v1h-1z"/><path fill="#fff" d="M4 5h3v2H4zM9 5h3v2H9z"/><path fill="#76778b" d="M9 6h1v1H9zM4 6h1v1H4z"/><path d="M6 11v-1h3V9h1v1H9v1H6Z" fill="#de0f0d"/><path d="M3 2h10v1h1v3h-1V4H3v2H2V3h1V2ZM13 8h1v1h1v2h-1v-1h-1V8ZM15 11h1v1h-1v-1Z" fill="#612616"/></g></svg>