<svg xmlns="http://www.w3.org/2000/svg" viewBox="0 0 16 16" fill="none" shape-rendering="crispEdges"><metadata xmlns:rdf="http://www.w3.org/1999/02/22-rdf-syntax-ns#" xmlns:xsi="http://www.w3.org/2001/XMLSchema-instance" xmlns:dc="http://purl.org/dc/elements/1.1/" xmlns:dcterms="http://purl.org/dc/terms/"><rdf:RDF><rdf:Description><dc:title>Pixel Art</dc:title><dc:creator>DiceBear</dc:creator><dc:source xsi:type="dcterms:URI">https://www.figma.com/community/file/1198754108850888330</dc:source><dcterms:license xsi:type="dcterms:URI">https://creativecommons.org/publicdomain/zero/1.0/</dcterms:license><dc:rights>„Pixel Art” (https://www.figma.com/community/file/1198754108850888330) by „DiceBear”, licensed under „CC0 1.0” (https://creativecommons.org/publicdomain/zero/1.0/)</dc:rights></rdf:Description></rdf:RDF></metadata><mask id="viewboxMask"><rect width="16" height="16" rx="1.6" ry="1.6" x="0" y="0" fill="#fff" /></mask><g mask="url(#viewboxMask)"><path d="M4 2h8v1h1v3h1v2h-1v3h-1v1H9v1h4v1h1v2H2v-2h1v-1h4v-1H4v-1H3V8H2V6h1V3h1V2Z" fill="#ffdbac"/><path d="M4 2h8v1h1v3h1v2h-1v3h-1v1H4v-1H3V8H2V6h1V3h1V2Z" fill="#fff" fill-opacity=".1"/><path d="M10 13h3v1h1v2H2v-2h1v-1h3v1h4v-1Z" fill="#03396c"/><path fill="#fff" fill-opacity=".2" d="M3 13h1v1H3zM2 14h1v1H2zM3 15h1v1H3zM4 14h1v1H4zM5 13h1v1H5zM5 15h1v1H5zM6 14h1v1H6zM7 15h1v1H7zM8 14h1v1H8zM9 15h1v1H9zM10 14h1v1h-1zM11 15h1v1h-1zM11 13h1v1h-1zM12 14h1v1h-1zM13 15h1v1h-1z"/><g fill-rule="evenodd" clip-rule="evenodd"><path d="M11 5h-1v2h2V6h-1V5ZM6 5H5v2h2V6H6V5Z" fill="#fff"/><path d="M10 5v1h1v1H9V5h1ZM5 5v1h1v1H4V5h1Z" fill="#5b7c8b"/><path d="M10 5v1H9V5h1Zm1 1v1h-1V6h1ZM5 5v1H4V5h1Zm1 1v1H5V6h1Z" fill="#fff" fill-opacity=".5"/></g><path fill="#323232" d="M2 5h12v1H2zM3 7h10v1H3zM3 6h1v1H3zM12 6h1v1h-1z"/><path fill="#000" fill-opacity=".3" d="M4 6h8v1H4z"/><path fill="#fff" fill-opacity=".2" d="M2 5h1v1H2zM13 5h1v1h-1z"/><path fill="#000" fill-opacity=".3" d="M7 6h2v1H7z"/><path d="M6 10v1h1v-1h3V9H7v1H6Z" fill="#e35d6a"/><path d="M11 2H5v1h1v1h4V3h1V2ZM3 3h1v2H3V3ZM13 3h-1v2h1V3Z" fill="#28150a"/></g></svg>